<?xml version="1.0" encoding="UTF-8"?>
<!-- Created with Inkscape (http://www.inkscape.org/) -->
<svg width="512" height="512" version="1.1" viewBox="0 0 512 512" xml:space="preserve" xmlns="http://www.w3.org/2000/svg" xmlns:cc="http://creativecommons.org/ns#" xmlns:dc="http://purl.org/dc/elements/1.1/" xmlns:rdf="http://www.w3.org/1999/02/22-rdf-syntax-ns#"><title>Boppy McBop Face</title><g transform="scale(1.3333)"><g transform="matrix(40.324 0 0 40.318 0 -.039318)"><rect x="-4.6906e-8" y="-.00014951" width="9.523" height="9.5242" fill="#121d26" stroke-width=".29761"/><path d="m0 4.762 9.523-4.7621v4.7621l-9.523 4.7621z" fill="#4da9ff" fill-opacity=".0333" stroke-width=".29761"/><path d="m-4.5518 5.2951c0 6.351-9.523 6.351-9.523 0 0-6.348 9.523-6.348 9.523 0" fill="#afe9dd"/><g fill="#4da9ff"><path d="m4.762 3.062c-1.879 0-3.403 0.762-3.399 1.7 0 0.937 1.524 1.699 3.399 1.699 1.879 0 3.398-0.762 3.398-1.699 0-0.938-1.523-1.7-3.398-1.7zm0 0.282c1.691 0 3.066 0.636 3.066 1.422 0 0.785-1.371 1.418-3.066 1.418-1.692 0-3.063-0.637-3.067-1.418 0-0.786 1.371-1.422 3.067-1.422z"/><path d="m3.289 3.91c-0.937 1.625-1.043 3.324-0.227 3.797 0.813 0.469 2.235-0.469 3.172-2.094 0.938-1.625 1.039-3.324 0.227-3.793-0.813-0.468-2.234 0.469-3.172 2.094zm0.242 0.141c0.848-1.465 2.082-2.336 2.762-1.946 0.68 0.391 0.543 1.899-0.301 3.364-0.847 1.465-2.082 2.336-2.762 1.941-0.679-0.39-0.542-1.898 0.301-3.363z"/><path d="m3.289 5.613c0.938 1.625 2.359 2.563 3.172 2.094 0.812-0.469 0.711-2.168-0.227-3.793-0.937-1.625-2.359-2.566-3.172-2.094-0.812 0.469-0.71 2.168 0.227 3.793zm0.242-0.14c-0.847-1.465-0.98-2.973-0.301-3.364 0.68-0.39 1.918 0.477 2.762 1.946 0.848 1.465 0.981 2.972 0.301 3.363s-1.918-0.477-2.762-1.945z"/></g><g fill="#fff"><path d="m4.5414 4.2525c0 0.45935-0.68986 0.45935-0.68986 0 0-0.46018 0.68986-0.46018 0.68986 0"/><path d="m5.7566 4.2525c0 0.45935-0.68986 0.45935-0.68986 0 0-0.46018 0.68986-0.46018 0.68986 0"/><path d="m5.7644 5.2917c0 0.52508-1.9179 0.52508-1.9179 0 0-0.26337 0.48078 0.072918 0.96091 0.073279 0.47881 3.597e-4 0.95697-0.33593 0.95697-0.073279"/></g></g></g><metadata><rdf:RDF><cc:Work rdf:about=""><dc:title>Boppy McBop Face</dc:title></cc:Work></rdf:RDF></metadata></svg>