<svg width="512" height="512" viewBox="0 0 512 512" xml:space="preserve" xmlns="http://www.w3.org/2000/svg">
  <g transform="matrix(53.764 0 0 53.756 0 -.05242269)">
    <path fill="#121d26" d="M-5e-8-.00014951h9.523v9.5242H-5e-8z"/>
    <path d="M0 4.762 9.523-.0001V4.762L0 9.5241z" fill="#4da9ff" fill-opacity=".0333"/>
    <path d="M-4.5518 5.2951c0 6.351-9.523 6.351-9.523 0 0-6.348 9.523-6.348 9.523 0" fill="#afe9dd"/>
    <g fill="#4da9ff">
      <path d="M4.762 3.062c-1.879 0-3.403.762-3.399 1.7 0 .937 1.524 1.699 3.399 1.699 1.879 0 3.398-.762 3.398-1.699 0-.938-1.523-1.7-3.398-1.7zm0 .282c1.691 0 3.066.636 3.066 1.422 0 .785-1.371 1.418-3.066 1.418-1.692 0-3.063-.637-3.067-1.418 0-.786 1.371-1.422 3.067-1.422z"/>
      <path d="M3.289 3.91c-.937 1.625-1.043 3.324-.227 3.797.813.469 2.235-.469 3.172-2.094.938-1.625 1.039-3.324.227-3.793-.813-.468-2.234.469-3.172 2.094zm.242.141c.848-1.465 2.082-2.336 2.762-1.946.68.391.543 1.899-.301 3.364C5.145 6.934 3.91 7.805 3.23 7.41c-.679-.39-.542-1.898.301-3.363z"/>
      <path d="M3.289 5.613c.938 1.625 2.359 2.563 3.172 2.094.812-.469.711-2.168-.227-3.793-.937-1.625-2.359-2.566-3.172-2.094-.812.469-.71 2.168.227 3.793zm.242-.14c-.847-1.465-.98-2.973-.301-3.364.68-.39 1.918.477 2.762 1.946.848 1.465.981 2.972.301 3.363s-1.918-.477-2.762-1.945z"/>
    </g>
    <g fill="#fff">
      <path d="M4.5414 4.2525c0 .45935-.68986.45935-.68986 0 0-.46018.68986-.46018.68986 0"/>
      <path d="M5.7566 4.2525c0 .45935-.68986.45935-.68986 0 0-.46018.68986-.46018.68986 0"/>
      <path d="M5.7644 5.2917c0 .52508-1.9179.52508-1.9179 0 0-.26337.48078.072918.96091.073279.47881.0003597.95697-.33593.95697-.073279"/>
    </g>
  </g>
</svg>
