<svg version="1.1" width="512" height="512" x="0" y="0" viewBox="0 0 512 512" xml:space="preserve" xmlns:xlink="http://www.w3.org/1999/xlink" xmlns="http://www.w3.org/2000/svg">
  <g fill="#ffffff" fill-opacity="1">
    <path d="M512 255.63v.37c0-37.89461-.43 17.11-1.26 25.5-1.88 19.03-5.84 37.44-11.66 55.01C469.39 426.2 391.45 493.92 296 508.89c-12.71 1.99-25.74 3.05-39 3.1-.33.01-.67.01-1 .01-2.34 0-4.67-.03-7-.09-12.18-.33-24.14-1.5-35.84-3.48C92.18 488.05 0 382.78 0 256 0 114.62 114.62 0 256 0c131.21 0 239.37 98.72 254.25 225.93 1.14 9.74 1.74 19.65 1.75 29.7z" fill="#e5403c" />
    <path d="M512 255.63v.37c0 8.6-.43 17.11-1.26 25.5-1.88 19.03-5.84 37.44-11.66 55.01C469.39 426.2 391.45 493.92 296 508.89c-12.71 1.99-25.74 3.05-39 3.1-.33.01-.67.01-1 .01-2.34 0-4.67-.03-7-.09-12.18-.33-24.14-1.5-35.84-3.48L71.71 366.98l13.16-62.03 26.49-52.38h34.8l47.98-29.27-38.7-38.72L357.8 82.14s74.33 74.32 74.5 74.48l10.26 1.62 67.69 67.69c1.14 9.74 1.74 19.65 1.75 29.7z" fill="#ce3a36" display="inline"/>
  </g>
  <path d="M110.238 321.74v-43.805h39.968v-25.368H84.871v69.173zM403.037 202.476v43.805H363.07v25.368h65.335v-69.173z" fill="#06465e" />
  <g fill="#ffffff">
    <path d="M226.143 174.795V403.229h60V174.795z" fill="#06465e" mask="none"/>
    <path d="M336.143 192.881h-160c-16.569 0-30-13.431-30-30v-60c0-16.569 13.431-30 30-30h160c16.569 0 30 13.431 30 30v60c0 16.569-13.431 30-30 30zM333.748 429.119h-154.11c-12.672 0-22.945-10.273-22.945-22.945s10.273-22.945 22.945-22.945h154.11c12.672 0 22.945 10.273 22.945 22.945-.001 12.672-10.273 22.945-22.945 22.945z" fill="#ffffff" data-original="#ffffff"/>
    <path d="M336.143 353.295h-160c-16.569 0-30-13.431-30-30v-70c0-16.569 13.431-30 30-30h160c16.569 0 30 13.431 30 30v70c0 16.569-13.431 30-30 30z" fill="#ffffff" clip-path="none" />
  </g>
  <path d="M256 174.795v228.434h30.143V174.795z" fill="#022b3a" />
  <path d="M336.143 72.881H256v120h80.143c16.568 0 30-13.431 30-30v-60c0-16.568-13.431-30-30-30zM333.748 383.229H256v45.89h77.748c12.672 0 22.945-10.273 22.945-22.945-.001-12.672-10.273-22.945-22.945-22.945zM336.143 223.295H256v130h80.143c16.568 0 30-13.432 30-30v-70c0-16.568-13.431-30-30-30zM434.377 151.817l-6.821 15.752-2.619 6.049c2.934 2.568 4.799 6.33 4.799 10.526 0 7.72-6.28 14-14 14s-14-6.281-14-14c0-4.196 1.865-7.958 4.799-10.526l-2.619-6.049-6.821-15.752c-11.162 6.462-18.693 18.527-18.693 32.326 0 20.586 16.748 37.334 37.334 37.334 20.586 0 37.334-16.748 37.334-37.334 0-13.798-7.531-25.864-18.693-32.326z" fill="#eaeaea" data-original="#eaeaea"/>
  <circle cx="306.14301" cy="132.881" fill="#06465e" r="27.5" />
  <path d="M306.144 172.881c-22.056 0-40-17.944-40-40s17.944-40 40-40 40 17.944 40 40-17.945 40-40 40zm0-55c-8.271 0-15 6.729-15 15s6.729 15 15 15 15-6.729 15-15-6.729-15-15-15z" fill="#2284ec" />
  <circle cx="97.540001" cy="265.086" r="18.667" fill="#ffffff" />
  <path d="m78.899 372.399 6.821-15.751 2.619-6.049c-2.934-2.568-4.799-6.33-4.799-10.526 0-7.72 6.28-14 14-14s14 6.281 14 14c0 4.196-1.865 7.958-4.799 10.526l2.619 6.049 6.821 15.751c11.162-6.462 18.693-18.527 18.693-32.326 0-20.586-16.748-37.334-37.334-37.334-20.586 0-37.334 16.748-37.334 37.334 0 13.798 7.531 25.864 18.693 32.326z" fill="#ffffff" data-original="#ffffff"/>
  <circle cx="206.14301" cy="132.881" fill="#06465e" r="27.5" />
  <path d="M206.144 172.881c-22.056 0-40-17.944-40-40s17.944-40 40-40 40 17.944 40 40-17.945 40-40 40zm0-55c-8.271 0-15 6.729-15 15s6.729 15 15 15 15-6.729 15-15-6.729-15-15-15z" fill="#27ade5" />
</svg>
