<svg xmlns="http://www.w3.org/2000/svg" fill="currentColor" fill-rule="evenodd" stroke-linejoin="round" stroke-miterlimit="2" clip-rule="evenodd" viewBox="0 0 42 42">
  <path d="M0 6a6 6 0 0 1 6-6h30a6 6 0 0 1 6 6v30a6 6 0 0 1-6 6H6a6 6 0 0 1-6-6V6Zm38.49 6.58a.33.33 0 0 0 .27-.16.6.6 0 0 0 .12-.36c0-.26-.07-.39-.22-.39-.58.01-1.16.06-1.73.13a15.68 15.68 0 0 1-3.28 0c-.71-.07-1.33-.1-1.85-.1-.19 0-.28.15-.28.46 0 .3.06.45.19.45 1.42.06 2.13.63 2.13 1.7-.01.5-.12 1-.32 1.46l-6.1 14.5-4.14-8.61 3.06-5.77a8.93 8.93 0 0 1 1.9-2.59 3.94 3.94 0 0 1 1.99-.7c.23 0 .34-.17.34-.52 0-.26-.06-.39-.19-.39-.53 0-1.2.04-2.01.12-.64.05-1.12.08-1.45.08-.41 0-1-.03-1.75-.1a23.4 23.4 0 0 0-1.89-.1c-.06 0-.13.06-.19.15a.56.56 0 0 0-.1.31c0 .3.07.46.2.46 1.42.06 2.13.6 2.13 1.6a3.59 3.59 0 0 1-.48 1.55l-2.3 4.37-2.3-4.78a4.03 4.03 0 0 1-.5-1.5c0-.75.71-1.17 2.13-1.27.1 0 .16-.15.16-.45 0-.3-.08-.46-.25-.46-.73 0-1.45.03-2.16.1-.72.06-1.39.1-2.02.1-.61 0-1.23-.04-1.83-.1-.65-.07-1.3-.1-1.96-.1-.15 0-.22.15-.22.46 0 .1.03.22.1.31.05.08.13.13.22.14a3.05 3.05 0 0 1 1.82.7 9.7 9.7 0 0 1 1.55 2.58l3.49 7.46-3.74 7.22L10.4 15.4a2.56 2.56 0 0 1-.25-.98c-.02-.5.22-.97.63-1.26a3.1 3.1 0 0 1 1.68-.55c.1 0 .16-.15.16-.46 0-.3-.09-.45-.26-.45-.75 0-1.56.03-2.44.1s-1.65.09-2.3.09c-.58 0-1.26-.03-2.03-.1-.78-.06-1.52-.1-2.23-.1-.17 0-.25.16-.25.46 0 .12.04.23.11.32.06.08.15.13.24.14.84.05 1.64.34 2.31.85a6.55 6.55 0 0 1 1.57 2.4l7.97 18.67c.08.18.27.29.46.26a.5.5 0 0 0 .45-.26l5.24-9.72L26 34.54a.5.5 0 0 0 .45.26c.25 0 .4-.09.45-.26l8.11-18.67c.34-.93.87-1.8 1.55-2.52a3.3 3.3 0 0 1 1.92-.77Z"/>
</svg>